<svg width="83" height="82" viewBox="0 0 83 82" fill="none" xmlns="http://www.w3.org/2000/svg">
    <rect x="0.5" width="82" height="82" rx="41" fill="#4F1DED" />
    <path
        d="M19.196 23.9338C19.2583 26.1017 19.1138 28.1251 19.4193 30.0779C19.8646 32.9309 21.6224 34.8908 24.3661 35.8837C25.5446 36.3102 26.7384 36.7027 27.9452 37.0376C28.5585 37.2079 28.763 37.4817 28.7654 38.1291C28.79 44.0747 28.8546 50.0203 28.9052 55.9657C28.9345 59.3817 30.9403 62.1394 34.1798 63.2005C36.054 63.8149 37.9316 64.4222 39.9103 65.0675C39.9186 64.5212 39.9362 64.0533 39.9315 63.5847C39.8481 54.4383 39.7082 45.292 39.7059 36.1457C39.7059 33.1729 37.5145 29.7959 34.3654 28.8454C29.6137 27.4095 24.9125 25.7962 20.1901 24.2581C19.9187 24.17 19.6484 24.0818 19.196 23.9338Z"
        fill="white" />
    <path
        d="M63.8254 23.9338C63.7632 26.1017 63.9076 28.1251 63.6022 30.0779C63.157 32.9309 61.399 34.8908 58.6554 35.8837C57.4768 36.3102 56.283 36.7027 55.0763 37.0376C54.4629 37.2079 54.2585 37.4817 54.2562 38.1291C54.2315 44.0747 54.1669 50.0203 54.1163 55.9657C54.0869 59.3817 52.0812 62.1394 48.8417 63.2005C46.9676 63.8149 45.0899 64.4222 43.1112 65.0675C43.1029 64.5212 43.0853 64.0533 43.09 63.5847C43.1734 54.4383 43.3133 45.292 43.3156 36.1457C43.3156 33.1729 45.507 29.7959 48.656 28.8454C53.4101 27.4095 58.1102 25.7962 62.8327 24.2581C63.1016 24.17 63.3731 24.0818 63.8254 23.9338Z"
        fill="white" />
    <path d="M41.3769 28.534C44.5918 28.534 47.198 25.9279 47.198 22.713C47.198 19.4982 44.5918 16.892 41.3769 16.892C38.1621 16.892 35.5559 19.4982 35.5559 22.713C35.5559 25.9279 38.1621 28.534 41.3769 28.534Z" fill="white" />
</svg>