<svg width="345" height="142" viewBox="0 0 345 142" fill="none" xmlns="http://www.w3.org/2000/svg">
    <rect width="82" height="82" rx="41" fill="#4F1DED" />
    <path
        d="M18.655 23.8518C18.7173 26.0197 18.5728 28.043 18.8783 29.9959C19.3236 32.8488 21.0814 34.8087 23.825 35.8015C25.0035 36.228 26.1973 36.6205 27.4041 36.9554C28.0174 37.1257 28.2219 37.3995 28.2242 38.0469C28.2489 43.9924 28.3135 49.9379 28.364 55.8834C28.3934 59.2991 30.3991 62.0568 33.6386 63.1178C35.5127 63.7324 37.3904 64.3398 39.3691 64.9849C39.3773 64.4385 39.3949 63.9709 39.3902 63.5021C39.3068 54.3559 39.167 45.2097 39.1646 36.0635C39.1646 33.0908 36.9732 29.7139 33.8242 28.7633C29.0726 27.3274 24.3714 25.7142 19.6491 24.1761C19.3777 24.088 19.1074 23.9999 18.655 23.8518Z"
        fill="white" />
    <path
        d="M63.2837 23.8518C63.2214 26.0197 63.3659 28.043 63.0604 29.9959C62.6151 32.8488 60.8573 34.8087 58.1137 35.8015C56.9352 36.228 55.7414 36.6205 54.5347 36.9554C53.9213 37.1257 53.7169 37.3995 53.7145 38.0469C53.6898 43.9924 53.6252 49.9379 53.5747 55.8834C53.5453 59.2991 51.5396 62.0568 48.3001 63.1178C46.426 63.7324 44.5484 64.3398 42.5697 64.9849C42.5614 64.4385 42.5438 63.9709 42.5485 63.5021C42.6319 54.3559 42.7718 45.2097 42.7741 36.0635C42.7741 33.0908 44.9655 29.7139 48.1145 28.7633C52.8685 27.3274 57.5685 25.7142 62.2908 24.1761C62.5599 24.088 62.8313 23.9999 63.2837 23.8518Z"
        fill="white" />
    <path d="M40.8355 28.4518C44.0503 28.4518 46.6564 25.8457 46.6564 22.6309C46.6564 19.4161 44.0503 16.8099 40.8355 16.8099C37.6206 16.8099 35.0145 19.4161 35.0145 22.6309C35.0145 25.8457 37.6206 28.4518 40.8355 28.4518Z" fill="white" />
    <path
        d="M124.601 66.576C122.979 66.576 121.742 66.128 120.889 65.232C120.035 64.336 119.609 63.0773 119.609 61.456V29.072H108.281C106.958 29.072 105.934 28.7093 105.209 27.984C104.483 27.2587 104.12 26.256 104.12 24.976C104.12 23.6533 104.483 22.6507 105.209 21.968C105.934 21.2427 106.958 20.88 108.281 20.88H140.857C142.179 20.88 143.203 21.2427 143.929 21.968C144.654 22.6507 145.017 23.6533 145.017 24.976C145.017 26.256 144.654 27.2587 143.929 27.984C143.203 28.7093 142.179 29.072 140.857 29.072H129.529V61.456C129.529 63.0773 129.102 64.336 128.249 65.232C127.438 66.128 126.222 66.576 124.601 66.576ZM154.024 66.704C151.72 66.704 149.65 66.256 147.816 65.36C145.981 64.464 144.552 63.248 143.528 61.712C142.504 60.176 141.992 58.448 141.992 56.528C141.992 54.224 142.589 52.4107 143.784 51.088C144.978 49.7227 146.92 48.7627 149.608 48.208C152.296 47.6107 155.858 47.312 160.296 47.312H163.688V52.304H160.36C158.184 52.304 156.413 52.432 155.048 52.688C153.725 52.9013 152.765 53.2853 152.168 53.84C151.613 54.3947 151.336 55.1627 151.336 56.144C151.336 57.3387 151.741 58.32 152.552 59.088C153.405 59.856 154.621 60.24 156.2 60.24C157.437 60.24 158.525 59.9627 159.464 59.408C160.445 58.8107 161.213 58.0213 161.768 57.04C162.322 56.016 162.6 54.864 162.6 53.584V46.224C162.6 44.3467 162.173 43.024 161.32 42.256C160.466 41.4453 159.016 41.04 156.968 41.04C155.816 41.04 154.557 41.1893 153.192 41.488C151.869 41.744 150.397 42.192 148.776 42.832C147.837 43.2587 147.005 43.3653 146.28 43.152C145.554 42.896 145 42.4693 144.616 41.872C144.232 41.232 144.04 40.5493 144.04 39.824C144.04 39.056 144.253 38.3307 144.68 37.648C145.106 36.9227 145.81 36.3893 146.792 36.048C148.797 35.2373 150.674 34.6827 152.424 34.384C154.216 34.0853 155.858 33.936 157.352 33.936C160.637 33.936 163.325 34.4267 165.416 35.408C167.549 36.3467 169.149 37.8187 170.216 39.824C171.282 41.7867 171.816 44.3253 171.816 47.44V61.648C171.816 63.2267 171.432 64.4427 170.664 65.296C169.896 66.1493 168.786 66.576 167.336 66.576C165.885 66.576 164.754 66.1493 163.944 65.296C163.176 64.4427 162.792 63.2267 162.792 61.648V59.28L163.24 59.664C162.984 61.1147 162.429 62.3733 161.576 63.44C160.765 64.464 159.72 65.2747 158.44 65.872C157.16 66.4267 155.688 66.704 154.024 66.704ZM189.649 66.704C187.345 66.704 185.275 66.256 183.441 65.36C181.606 64.464 180.177 63.248 179.153 61.712C178.129 60.176 177.617 58.448 177.617 56.528C177.617 54.224 178.214 52.4107 179.409 51.088C180.603 49.7227 182.545 48.7627 185.233 48.208C187.921 47.6107 191.483 47.312 195.921 47.312H199.313V52.304H195.985C193.809 52.304 192.038 52.432 190.673 52.688C189.35 52.9013 188.39 53.2853 187.793 53.84C187.238 54.3947 186.961 55.1627 186.961 56.144C186.961 57.3387 187.366 58.32 188.177 59.088C189.03 59.856 190.246 60.24 191.825 60.24C193.062 60.24 194.15 59.9627 195.089 59.408C196.07 58.8107 196.838 58.0213 197.393 57.04C197.947 56.016 198.225 54.864 198.225 53.584V46.224C198.225 44.3467 197.798 43.024 196.945 42.256C196.091 41.4453 194.641 41.04 192.593 41.04C191.441 41.04 190.182 41.1893 188.817 41.488C187.494 41.744 186.022 42.192 184.401 42.832C183.462 43.2587 182.63 43.3653 181.905 43.152C181.179 42.896 180.625 42.4693 180.241 41.872C179.857 41.232 179.665 40.5493 179.665 39.824C179.665 39.056 179.878 38.3307 180.305 37.648C180.731 36.9227 181.435 36.3893 182.417 36.048C184.422 35.2373 186.299 34.6827 188.049 34.384C189.841 34.0853 191.483 33.936 192.977 33.936C196.262 33.936 198.95 34.4267 201.041 35.408C203.174 36.3467 204.774 37.8187 205.841 39.824C206.907 41.7867 207.441 44.3253 207.441 47.44V61.648C207.441 63.2267 207.057 64.4427 206.289 65.296C205.521 66.1493 204.411 66.576 202.961 66.576C201.51 66.576 200.379 66.1493 199.569 65.296C198.801 64.4427 198.417 63.2267 198.417 61.648V59.28L198.865 59.664C198.609 61.1147 198.054 62.3733 197.201 63.44C196.39 64.464 195.345 65.2747 194.065 65.872C192.785 66.4267 191.313 66.704 189.649 66.704ZM226.682 66.704C224.804 66.704 222.863 66.5333 220.858 66.192C218.895 65.8507 217.103 65.2747 215.482 64.464C214.628 64.0373 214.01 63.504 213.626 62.864C213.284 62.1813 213.135 61.4987 213.178 60.816C213.22 60.1333 213.434 59.5147 213.818 58.96C214.244 58.4053 214.778 58.0427 215.418 57.872C216.1 57.6587 216.847 57.7227 217.658 58.064C219.407 58.7893 221.007 59.3013 222.458 59.6C223.908 59.8987 225.338 60.048 226.746 60.048C228.58 60.048 229.903 59.7707 230.714 59.216C231.567 58.6187 231.994 57.8507 231.994 56.912C231.994 56.0587 231.716 55.4187 231.162 54.992C230.607 54.5653 229.796 54.2667 228.73 54.096L222.01 52.88C219.364 52.4107 217.316 51.4507 215.866 50C214.458 48.5067 213.754 46.608 213.754 44.304C213.754 42.1707 214.351 40.336 215.546 38.8C216.74 37.2213 218.383 36.0267 220.474 35.216C222.607 34.3627 225.018 33.936 227.706 33.936C229.626 33.936 231.396 34.1067 233.018 34.448C234.639 34.7893 236.196 35.344 237.69 36.112C238.458 36.496 238.991 37.008 239.29 37.648C239.631 38.288 239.738 38.9493 239.61 39.632C239.524 40.3147 239.268 40.9333 238.842 41.488C238.415 42.0427 237.86 42.4053 237.178 42.576C236.538 42.7467 235.791 42.6613 234.938 42.32C233.572 41.68 232.314 41.232 231.162 40.976C230.01 40.6773 228.9 40.528 227.833 40.528C225.914 40.528 224.527 40.848 223.674 41.488C222.82 42.0853 222.394 42.8533 222.394 43.792C222.394 44.5173 222.628 45.136 223.098 45.648C223.61 46.1173 224.378 46.4373 225.402 46.608L232.122 47.824C234.895 48.2933 237.007 49.232 238.458 50.64C239.908 52.0053 240.634 53.8827 240.634 56.272C240.634 59.5147 239.354 62.0747 236.794 63.952C234.276 65.7867 230.906 66.704 226.682 66.704ZM251.014 66.576C249.435 66.576 248.219 66.1493 247.366 65.296C246.555 64.4427 246.15 63.2267 246.15 61.648V25.232C246.15 23.6107 246.555 22.3947 247.366 21.584C248.219 20.7307 249.435 20.304 251.014 20.304C252.55 20.304 253.723 20.7307 254.534 21.584C255.387 22.3947 255.814 23.6107 255.814 25.232V47.568H255.942L265.222 37.264C266.16 36.1973 267.014 35.408 267.782 34.896C268.592 34.3413 269.659 34.064 270.982 34.064C272.304 34.064 273.307 34.4053 273.99 35.088C274.715 35.7707 275.078 36.6027 275.078 37.584C275.12 38.5227 274.715 39.4827 273.862 40.464L264.07 51.408V47.76L274.95 60.304C275.76 61.2853 276.102 62.2667 275.974 63.248C275.888 64.2293 275.462 65.04 274.694 65.68C273.926 66.2773 272.944 66.576 271.75 66.576C270.299 66.576 269.126 66.2987 268.23 65.744C267.376 65.1893 266.502 64.336 265.606 63.184L255.942 52.432H255.814V61.648C255.814 64.9333 254.214 66.576 251.014 66.576ZM293.165 66.704C289.368 66.704 286.53 65.6587 284.653 63.568C282.776 61.4347 281.837 58.2773 281.837 54.096V25.232C281.837 23.6107 282.242 22.3947 283.053 21.584C283.906 20.7307 285.122 20.304 286.701 20.304C288.237 20.304 289.41 20.7307 290.221 21.584C291.074 22.3947 291.501 23.6107 291.501 25.232V53.712C291.501 55.4613 291.864 56.7627 292.589 57.616C293.357 58.4267 294.36 58.832 295.597 58.832C295.938 58.832 296.258 58.8107 296.557 58.768C296.856 58.7253 297.176 58.704 297.517 58.704C298.2 58.6187 298.669 58.832 298.925 59.344C299.224 59.8133 299.373 60.7733 299.373 62.224C299.373 63.504 299.117 64.4853 298.605 65.168C298.093 65.808 297.304 66.2347 296.237 66.448C295.81 66.4907 295.32 66.5333 294.765 66.576C294.21 66.6613 293.677 66.704 293.165 66.704ZM310.851 78.096C309.741 78.096 308.824 77.7973 308.099 77.2C307.373 76.6027 306.947 75.8133 306.819 74.832C306.691 73.8933 306.861 72.8907 307.331 71.824L311.619 62.352V66.32L300.291 40.336C299.864 39.2267 299.715 38.2027 299.843 37.264C300.013 36.2827 300.483 35.5147 301.251 34.96C302.061 34.3627 303.171 34.064 304.579 34.064C305.731 34.064 306.648 34.3413 307.331 34.896C308.056 35.408 308.717 36.4107 309.315 37.904L316.867 57.104H314.819L322.627 37.84C323.224 36.3893 323.885 35.408 324.611 34.896C325.379 34.3413 326.403 34.064 327.683 34.064C328.792 34.064 329.667 34.3627 330.307 34.96C330.989 35.5147 331.395 36.2613 331.523 37.2C331.693 38.1387 331.523 39.1627 331.011 40.272L315.971 74.384C315.331 75.8347 314.605 76.816 313.795 77.328C313.027 77.84 312.045 78.096 310.851 78.096Z"
        fill="#4F1DED" />
    <rect x="157" y="89" width="188" height="53" rx="26.5" fill="#4F1DED" />
    <path
        d="M207.507 125.24C206.887 125.24 206.407 125.07 206.067 124.73C205.747 124.37 205.587 123.88 205.587 123.26V105.59C205.587 104.95 205.747 104.46 206.067 104.12C206.407 103.78 206.887 103.61 207.507 103.61C208.127 103.61 208.597 103.78 208.917 104.12C209.257 104.46 209.427 104.95 209.427 105.59V123.26C209.427 123.88 209.267 124.37 208.947 124.73C208.627 125.07 208.147 125.24 207.507 125.24ZM215.554 125.24C214.954 125.24 214.494 125.08 214.174 124.76C213.854 124.42 213.694 123.94 213.694 123.32V111.98C213.694 111.36 213.854 110.89 214.174 110.57C214.494 110.25 214.944 110.09 215.524 110.09C216.104 110.09 216.554 110.25 216.874 110.57C217.194 110.89 217.354 111.36 217.354 111.98V114.02L217.024 113.27C217.464 112.21 218.144 111.41 219.064 110.87C220.004 110.31 221.064 110.03 222.244 110.03C223.424 110.03 224.394 110.25 225.154 110.69C225.914 111.13 226.484 111.8 226.864 112.7C227.244 113.58 227.434 114.7 227.434 116.06V123.32C227.434 123.94 227.274 124.42 226.954 124.76C226.634 125.08 226.174 125.24 225.574 125.24C224.974 125.24 224.504 125.08 224.164 124.76C223.844 124.42 223.684 123.94 223.684 123.32V116.24C223.684 115.1 223.464 114.27 223.024 113.75C222.604 113.23 221.944 112.97 221.044 112.97C219.944 112.97 219.064 113.32 218.404 114.02C217.764 114.7 217.444 115.61 217.444 116.75V123.32C217.444 124.6 216.814 125.24 215.554 125.24ZM237.036 125.24C236.536 125.24 236.096 125.11 235.716 124.85C235.356 124.59 235.056 124.19 234.816 123.65L230.046 112.58C229.866 112.14 229.796 111.73 229.836 111.35C229.896 110.97 230.076 110.67 230.376 110.45C230.696 110.21 231.126 110.09 231.666 110.09C232.126 110.09 232.496 110.2 232.776 110.42C233.056 110.62 233.306 111.01 233.526 111.59L237.576 121.7H236.676L240.846 111.56C241.066 111 241.316 110.62 241.596 110.42C241.896 110.2 242.296 110.09 242.796 110.09C243.236 110.09 243.586 110.21 243.846 110.45C244.106 110.67 244.266 110.97 244.326 111.35C244.386 111.71 244.316 112.11 244.116 112.55L239.256 123.65C239.036 124.19 238.736 124.59 238.356 124.85C237.996 125.11 237.556 125.24 237.036 125.24ZM253.314 125.3C251.794 125.3 250.474 124.99 249.354 124.37C248.234 123.75 247.364 122.87 246.744 121.73C246.124 120.57 245.814 119.21 245.814 117.65C245.814 116.47 245.984 115.42 246.324 114.5C246.684 113.56 247.194 112.76 247.854 112.1C248.514 111.42 249.304 110.91 250.224 110.57C251.144 110.21 252.174 110.03 253.314 110.03C254.834 110.03 256.154 110.34 257.274 110.96C258.394 111.58 259.264 112.46 259.884 113.6C260.504 114.74 260.814 116.09 260.814 117.65C260.814 118.83 260.634 119.89 260.274 120.83C259.934 121.77 259.434 122.58 258.774 123.26C258.114 123.92 257.324 124.43 256.404 124.79C255.484 125.13 254.454 125.3 253.314 125.3ZM253.314 122.45C254.054 122.45 254.704 122.27 255.264 121.91C255.824 121.55 256.254 121.02 256.554 120.32C256.874 119.6 257.034 118.71 257.034 117.65C257.034 116.05 256.694 114.86 256.014 114.08C255.334 113.28 254.434 112.88 253.314 112.88C252.574 112.88 251.924 113.06 251.364 113.42C250.804 113.76 250.364 114.29 250.044 115.01C249.744 115.71 249.594 116.59 249.594 117.65C249.594 119.23 249.934 120.43 250.614 121.25C251.294 122.05 252.194 122.45 253.314 122.45ZM265.769 125.21C265.169 125.21 264.709 125.03 264.389 124.67C264.069 124.31 263.909 123.81 263.909 123.17V112.16C263.909 111.5 264.069 111 264.389 110.66C264.709 110.3 265.169 110.12 265.769 110.12C266.369 110.12 266.829 110.3 267.149 110.66C267.489 111 267.659 111.5 267.659 112.16V123.17C267.659 123.81 267.499 124.31 267.179 124.67C266.859 125.03 266.389 125.21 265.769 125.21ZM265.769 107.33C265.069 107.33 264.519 107.16 264.119 106.82C263.739 106.46 263.549 105.97 263.549 105.35C263.549 104.71 263.739 104.22 264.119 103.88C264.519 103.54 265.069 103.37 265.769 103.37C266.489 103.37 267.039 103.54 267.419 103.88C267.799 104.22 267.989 104.71 267.989 105.35C267.989 105.97 267.799 106.46 267.419 106.82C267.039 107.16 266.489 107.33 265.769 107.33ZM278.335 125.3C276.795 125.3 275.455 124.99 274.315 124.37C273.175 123.73 272.295 122.83 271.675 121.67C271.055 120.51 270.745 119.15 270.745 117.59C270.745 116.41 270.915 115.36 271.255 114.44C271.615 113.5 272.125 112.71 272.785 112.07C273.445 111.41 274.245 110.91 275.185 110.57C276.125 110.21 277.175 110.03 278.335 110.03C278.995 110.03 279.705 110.12 280.465 110.3C281.245 110.48 281.975 110.78 282.655 111.2C282.975 111.4 283.185 111.64 283.285 111.92C283.385 112.2 283.405 112.49 283.345 112.79C283.285 113.07 283.155 113.32 282.955 113.54C282.775 113.74 282.545 113.87 282.265 113.93C281.985 113.97 281.675 113.9 281.335 113.72C280.895 113.46 280.445 113.27 279.985 113.15C279.525 113.01 279.085 112.94 278.665 112.94C278.005 112.94 277.425 113.05 276.925 113.27C276.425 113.47 275.995 113.77 275.635 114.17C275.295 114.55 275.035 115.03 274.855 115.61C274.675 116.19 274.585 116.86 274.585 117.62C274.585 119.1 274.935 120.27 275.635 121.13C276.355 121.97 277.365 122.39 278.665 122.39C279.085 122.39 279.515 122.33 279.955 122.21C280.415 122.09 280.875 121.9 281.335 121.64C281.675 121.46 281.975 121.4 282.235 121.46C282.515 121.52 282.745 121.66 282.925 121.88C283.105 122.08 283.215 122.33 283.255 122.63C283.295 122.91 283.255 123.19 283.135 123.47C283.035 123.75 282.835 123.98 282.535 124.16C281.875 124.56 281.175 124.85 280.435 125.03C279.695 125.21 278.995 125.3 278.335 125.3ZM292.643 125.3C290.983 125.3 289.553 124.99 288.353 124.37C287.153 123.75 286.223 122.87 285.563 121.73C284.923 120.59 284.603 119.24 284.603 117.68C284.603 116.16 284.913 114.83 285.533 113.69C286.173 112.55 287.043 111.66 288.143 111.02C289.263 110.36 290.533 110.03 291.953 110.03C292.993 110.03 293.923 110.2 294.743 110.54C295.583 110.88 296.293 111.37 296.873 112.01C297.473 112.65 297.923 113.43 298.223 114.35C298.543 115.25 298.703 116.27 298.703 117.41C298.703 117.77 298.573 118.05 298.313 118.25C298.073 118.43 297.723 118.52 297.263 118.52H287.633V116.36H296.063L295.583 116.81C295.583 115.89 295.443 115.12 295.163 114.5C294.903 113.88 294.513 113.41 293.993 113.09C293.493 112.75 292.863 112.58 292.103 112.58C291.263 112.58 290.543 112.78 289.943 113.18C289.363 113.56 288.913 114.11 288.593 114.83C288.293 115.53 288.143 116.37 288.143 117.35V117.56C288.143 119.2 288.523 120.43 289.283 121.25C290.063 122.05 291.203 122.45 292.703 122.45C293.223 122.45 293.803 122.39 294.443 122.27C295.103 122.13 295.723 121.9 296.303 121.58C296.723 121.34 297.093 121.24 297.413 121.28C297.733 121.3 297.983 121.41 298.163 121.61C298.363 121.81 298.483 122.06 298.523 122.36C298.563 122.64 298.503 122.93 298.343 123.23C298.203 123.53 297.953 123.79 297.593 124.01C296.893 124.45 296.083 124.78 295.163 125C294.263 125.2 293.423 125.3 292.643 125.3Z"
        fill="white" />
</svg>