<svg width="147" height="58" viewBox="0 0 147 58" fill="none" xmlns="http://www.w3.org/2000/svg">
<path fill-rule="evenodd" clip-rule="evenodd" d="M90 38C84.4772 38 80 42.4772 80 48C80 53.5228 84.4772 58 90 58H137C142.523 58 147 53.5228 147 48C147 42.4772 142.523 38 137 38H90ZM94.198 45.434V53H95.979V45.434H98.891V43.861H91.286V45.434H94.198ZM99.4473 52.701C99.9066 52.987 100.422 53.13 100.994 53.13C101.445 53.13 101.848 53.039 102.203 52.857C102.439 52.7302 102.643 52.5748 102.814 52.3906V53H104.504V46.721H102.814V47.3246C102.643 47.1385 102.439 46.985 102.203 46.864C101.848 46.682 101.445 46.591 100.994 46.591C100.422 46.591 99.9066 46.734 99.4473 47.02C98.9879 47.306 98.6283 47.696 98.3683 48.19C98.1083 48.684 97.9783 49.243 97.9783 49.867C97.9783 50.4823 98.1083 51.037 98.3683 51.531C98.6283 52.025 98.9879 52.415 99.4473 52.701ZM102.463 51.089C102.169 51.401 101.783 51.557 101.306 51.557C100.994 51.557 100.717 51.4877 100.474 51.349C100.24 51.2017 100.054 51.0023 99.9153 50.751C99.7853 50.491 99.7203 50.192 99.7203 49.854C99.7203 49.5247 99.7853 49.2343 99.9153 48.983C100.054 48.723 100.24 48.5237 100.474 48.385C100.717 48.2377 100.994 48.164 101.306 48.164C101.627 48.164 101.904 48.2377 102.138 48.385C102.381 48.5237 102.567 48.723 102.697 48.983C102.836 49.2343 102.905 49.5247 102.905 49.854C102.905 50.3567 102.758 50.7683 102.463 51.089ZM107.09 52.701C107.549 52.987 108.065 53.13 108.637 53.13C109.088 53.13 109.491 53.039 109.846 52.857C110.082 52.7302 110.286 52.5748 110.457 52.3906V53H112.147V46.721H110.457V47.3246C110.286 47.1385 110.082 46.985 109.846 46.864C109.491 46.682 109.088 46.591 108.637 46.591C108.065 46.591 107.549 46.734 107.09 47.02C106.631 47.306 106.271 47.696 106.011 48.19C105.751 48.684 105.621 49.243 105.621 49.867C105.621 50.4823 105.751 51.037 106.011 51.531C106.271 52.025 106.631 52.415 107.09 52.701ZM110.106 51.089C109.811 51.401 109.426 51.557 108.949 51.557C108.637 51.557 108.36 51.4877 108.117 51.349C107.883 51.2017 107.697 51.0023 107.558 50.751C107.428 50.491 107.363 50.192 107.363 49.854C107.363 49.5247 107.428 49.2343 107.558 48.983C107.697 48.723 107.883 48.5237 108.117 48.385C108.36 48.2377 108.637 48.164 108.949 48.164C109.27 48.164 109.547 48.2377 109.781 48.385C110.024 48.5237 110.21 48.723 110.34 48.983C110.479 49.2343 110.548 49.5247 110.548 49.854C110.548 50.3567 110.401 50.7683 110.106 51.089ZM114.758 53C115.105 53.0953 115.456 53.143 115.811 53.143C116.574 53.143 117.176 52.9653 117.618 52.61C118.06 52.246 118.281 51.7563 118.281 51.141C118.281 50.7597 118.203 50.4477 118.047 50.205C117.9 49.9623 117.705 49.7673 117.462 49.62C117.228 49.4727 116.977 49.36 116.708 49.282C116.448 49.1953 116.197 49.1217 115.954 49.061C115.712 48.9917 115.512 48.9137 115.356 48.827C115.209 48.7403 115.135 48.619 115.135 48.463C115.135 48.3243 115.2 48.216 115.33 48.138C115.469 48.06 115.664 48.021 115.915 48.021C116.193 48.021 116.448 48.073 116.682 48.177C116.925 48.281 117.142 48.45 117.332 48.684L118.359 47.657C118.082 47.293 117.731 47.02 117.306 46.838C116.89 46.656 116.422 46.565 115.902 46.565C115.408 46.565 114.979 46.6473 114.615 46.812C114.251 46.9767 113.97 47.2063 113.77 47.501C113.58 47.7957 113.484 48.1423 113.484 48.541C113.484 48.9223 113.558 49.2343 113.705 49.477C113.861 49.711 114.061 49.8973 114.303 50.036C114.546 50.166 114.797 50.2743 115.057 50.361C115.326 50.439 115.582 50.5127 115.824 50.582C116.067 50.6427 116.262 50.7207 116.409 50.816C116.565 50.9113 116.643 51.0457 116.643 51.219C116.643 51.375 116.57 51.492 116.422 51.57C116.284 51.648 116.076 51.687 115.798 51.687C115.452 51.687 115.135 51.6263 114.849 51.505C114.563 51.3837 114.312 51.2017 114.095 50.959L113.081 51.986C113.289 52.2287 113.536 52.4367 113.822 52.61C114.108 52.7747 114.42 52.9047 114.758 53ZM121.133 49.9361L123.434 53H125.514L122.919 49.7065L125.384 46.721H123.421L121.133 49.5995V43.601H119.43V53H121.133V49.9361ZM126.298 43.601V53H128.001V43.601H126.298ZM132.695 53.039L131.551 55.626H129.744L131.24 52.46L128.86 46.721H130.706L132.142 50.7067L133.631 46.721H135.49L132.695 53.039Z" fill="black"/>
<path d="M42.016 29V6.312H47.744V29H42.016ZM61.526 29V20.168C61.526 19.4427 61.3127 18.8773 60.886 18.472C60.4593 18.0453 59.9153 17.832 59.254 17.832C58.806 17.832 58.4007 17.928 58.038 18.12C57.6967 18.312 57.43 18.5787 57.238 18.92C57.046 19.2613 56.95 19.6773 56.95 20.168L54.774 19.144C54.774 17.8853 55.0513 16.808 55.606 15.912C56.1607 14.9947 56.918 14.2907 57.878 13.8C58.8593 13.288 59.9687 13.032 61.206 13.032C62.3367 13.032 63.3393 13.2987 64.214 13.832C65.11 14.344 65.814 15.0373 66.326 15.912C66.838 16.7867 67.094 17.7787 67.094 18.888V29H61.526ZM51.382 29V13.352H56.95V29H51.382ZM74.7423 29L68.3742 13.352H74.3263L78.3903 26.536H76.1183L80.1503 13.352H86.0382L79.6703 28.968L74.7423 29ZM94.969 29.352C93.2837 29.352 91.7797 29 90.457 28.296C89.1557 27.5707 88.121 26.5893 87.353 25.352C86.585 24.0933 86.201 22.6853 86.201 21.128C86.201 19.5707 86.5743 18.184 87.321 16.968C88.089 15.7307 89.1343 14.76 90.457 14.056C91.7797 13.3307 93.273 12.968 94.937 12.968C96.601 12.968 98.0837 13.3307 99.385 14.056C100.708 14.76 101.753 15.7307 102.521 16.968C103.289 18.184 103.673 19.5707 103.673 21.128C103.673 22.6853 103.289 24.0933 102.521 25.352C101.774 26.5893 100.74 27.5707 99.417 28.296C98.1157 29 96.633 29.352 94.969 29.352ZM94.937 24.392C95.5557 24.392 96.089 24.264 96.537 24.008C97.0063 23.7307 97.369 23.3467 97.625 22.856C97.881 22.3653 98.009 21.8 98.009 21.16C98.009 20.52 97.8703 19.9653 97.593 19.496C97.337 19.0053 96.985 18.632 96.537 18.376C96.089 18.0987 95.5557 17.96 94.937 17.96C94.3397 17.96 93.8063 18.0987 93.337 18.376C92.8677 18.6533 92.505 19.0373 92.249 19.528C91.993 19.9973 91.865 20.552 91.865 21.192C91.865 21.8107 91.993 22.3653 92.249 22.856C92.505 23.3467 92.8677 23.7307 93.337 24.008C93.8063 24.264 94.3397 24.392 94.937 24.392ZM105.85 29V13.352H111.45V29H105.85ZM108.634 11.528C107.802 11.528 107.109 11.2507 106.554 10.696C105.999 10.12 105.722 9.40533 105.722 8.552C105.722 7.72 105.999 7.016 106.554 6.44C107.109 5.864 107.802 5.576 108.634 5.576C109.509 5.576 110.213 5.864 110.746 6.44C111.301 7.016 111.578 7.72 111.578 8.552C111.578 9.40533 111.301 10.12 110.746 10.696C110.213 11.2507 109.509 11.528 108.634 11.528ZM122.439 29.352C120.775 29.352 119.271 29 117.927 28.296C116.604 27.592 115.559 26.6213 114.791 25.384C114.023 24.1467 113.639 22.7493 113.639 21.192C113.639 19.6133 114.023 18.2053 114.791 16.968C115.58 15.7307 116.636 14.76 117.959 14.056C119.303 13.3307 120.817 12.968 122.503 12.968C123.719 12.968 124.828 13.1707 125.831 13.576C126.833 13.9813 127.751 14.5893 128.583 15.4L125.063 18.92C124.743 18.6 124.369 18.3653 123.943 18.216C123.537 18.0453 123.057 17.96 122.503 17.96C121.905 17.96 121.361 18.0987 120.871 18.376C120.401 18.632 120.017 18.9947 119.719 19.464C119.441 19.9333 119.303 20.4987 119.303 21.16C119.303 21.8 119.441 22.3653 119.719 22.856C120.017 23.3253 120.401 23.6987 120.871 23.976C121.361 24.2533 121.905 24.392 122.503 24.392C123.1 24.392 123.612 24.296 124.039 24.104C124.465 23.912 124.839 23.6347 125.159 23.272L128.711 26.792C127.836 27.6453 126.887 28.2853 125.863 28.712C124.86 29.1387 123.719 29.352 122.439 29.352ZM138.224 29.352C136.474 29.352 134.928 29.0107 133.584 28.328C132.24 27.624 131.184 26.6533 130.416 25.416C129.648 24.1787 129.264 22.76 129.264 21.16C129.264 19.5813 129.637 18.184 130.384 16.968C131.13 15.7307 132.144 14.76 133.424 14.056C134.725 13.3307 136.186 12.968 137.808 12.968C139.386 12.968 140.784 13.3093 142 13.992C143.237 14.6533 144.197 15.5813 144.88 16.776C145.584 17.9493 145.936 19.2933 145.936 20.808C145.936 21.128 145.914 21.4587 145.872 21.8C145.85 22.12 145.786 22.4933 145.68 22.92L131.888 22.984V19.4L143.472 19.304L140.976 20.872C140.954 19.9973 140.826 19.2827 140.592 18.728C140.357 18.152 140.016 17.7147 139.568 17.416C139.12 17.1173 138.554 16.968 137.872 16.968C137.168 16.968 136.56 17.1387 136.048 17.48C135.536 17.8213 135.141 18.3013 134.864 18.92C134.586 19.5387 134.448 20.2853 134.448 21.16C134.448 22.056 134.597 22.824 134.896 23.464C135.194 24.0827 135.621 24.552 136.176 24.872C136.73 25.192 137.413 25.352 138.224 25.352C138.992 25.352 139.664 25.224 140.24 24.968C140.837 24.712 141.37 24.3173 141.84 23.784L144.752 26.696C143.984 27.5707 143.045 28.232 141.936 28.68C140.848 29.128 139.61 29.352 138.224 29.352Z" fill="black"/>
<path fill-rule="evenodd" clip-rule="evenodd" d="M17 0C7.61116 0 0 7.61116 0 17C0 26.3888 7.61116 34 17 34C26.3888 34 34 26.3888 34 17C34 7.61116 26.3888 0 17 0ZM15.2184 25.6432C15.6681 26.2486 16.3254 26.5946 17 26.5946C17.6746 26.5946 18.3319 26.2486 18.7816 25.6432L19.6551 24.4757C19.8368 24.2335 20.0876 24.0951 20.347 24.0778C20.6151 24.0519 20.8746 24.173 21.0822 24.3978C22.3362 25.7297 23.2876 25.6259 23.7459 25.4443C24.213 25.2541 25 24.6573 25 22.7459V13.0076C25 9.16757 23.893 8 20.2692 8H13.7308C10.107 8 9 9.16757 9 13.0076V22.7459C9 24.6659 9.78703 25.2627 10.2541 25.4443C10.7124 25.6259 11.6724 25.7297 12.9178 24.3978L12.4422 23.9568L12.9351 24.3978C13.1427 24.1816 13.4022 24.0692 13.6616 24.0778C13.9211 24.0951 14.1632 24.2335 14.3449 24.4757L15.2184 25.6432ZM13.7222 22.7719H13.6097C13.013 22.7719 12.4335 23.0313 11.9665 23.507C11.3092 24.2076 10.8768 24.2941 10.7297 24.2335C10.5222 24.1557 10.2973 23.6541 10.2973 22.7459V13.0076C10.2973 9.88541 10.8422 9.2973 13.7308 9.2973H20.2605C23.1492 9.2973 23.6941 9.88541 23.6941 13.0076V22.7459C23.6941 23.6454 23.4692 24.147 23.2616 24.2335C23.1059 24.2941 22.6822 24.2076 22.0249 23.507C21.5578 23.0054 20.9178 22.7373 20.2778 22.7719C19.6292 22.8065 19.0324 23.1438 18.6173 23.6886L17.7438 24.8562C17.32 25.4184 16.6714 25.4184 16.2476 24.8562L15.3741 23.6886C14.9676 23.1438 14.3622 22.8065 13.7222 22.7719ZM15.9025 17.0811H20.6593C21.0139 17.0811 21.3079 16.787 21.3079 16.4324C21.3079 16.0778 21.0139 15.7838 20.6593 15.7838H15.9025C15.5479 15.7838 15.2539 16.0778 15.2539 16.4324C15.2539 16.787 15.5479 17.0811 15.9025 17.0811ZM20.6593 13.6216H15.9025C15.5479 13.6216 15.2539 13.3275 15.2539 12.9729C15.2539 12.6183 15.5479 12.3243 15.9025 12.3243H20.6593C21.0139 12.3243 21.3079 12.6183 21.3079 12.9729C21.3079 13.3275 21.0139 13.6216 20.6593 13.6216ZM12.4847 12.9731C12.4847 13.4487 12.8739 13.8379 13.3495 13.8379C13.8252 13.8379 14.2144 13.4487 14.2144 12.9731C14.2144 12.4974 13.8252 12.1082 13.3495 12.1082C12.8739 12.1082 12.4847 12.4974 12.4847 12.9731ZM13.3495 17.2974C12.8739 17.2974 12.4847 16.9082 12.4847 16.4325C12.4847 15.9569 12.8739 15.5677 13.3495 15.5677C13.8252 15.5677 14.2144 15.9569 14.2144 16.4325C14.2144 16.9082 13.8252 17.2974 13.3495 17.2974Z" fill="black"/>
</svg>
