<svg width="20" height="20" viewBox="0 0 20 20" fill="none" xmlns="http://www.w3.org/2000/svg">
    <path
        d="M13.1501 1.6665H6.85008C3.70008 1.6665 2.91675 2.50817 2.91675 5.8665V15.2498C2.91675 17.4665 4.13341 17.9915 5.60842 16.4082L5.61675 16.3998C6.30008 15.6748 7.34175 15.7332 7.93342 16.5248L8.77508 17.6498C9.45008 18.5415 10.5417 18.5415 11.2167 17.6498L12.0584 16.5248C12.6584 15.7248 13.7001 15.6665 14.3834 16.3998C15.8667 17.9832 17.0751 17.4582 17.0751 15.2415V5.8665C17.0834 2.50817 16.3001 1.6665 13.1501 1.6665ZM12.2917 8.95817H7.70842C7.36675 8.95817 7.08342 8.67484 7.08342 8.33317C7.08342 7.9915 7.36675 7.70817 7.70842 7.70817H12.2917C12.6334 7.70817 12.9167 7.9915 12.9167 8.33317C12.9167 8.67484 12.6334 8.95817 12.2917 8.95817Z"
        fill="currentColor" />
</svg>